<svg xmlns="http://www.w3.org/2000/svg" viewBox="0 0 1467.54 1080"><defs><style>.cls-1{isolation:isolate;}.cls-2{fill:#595757;}.cls-3,.cls-4{fill:#c1272d;}.cls-4{opacity:0.47;}.cls-25,.cls-4{mix-blend-mode:multiply;}.cls-5{fill:#151523;}.cls-6{fill:#999;}.cls-7{fill:#454551;}.cls-8{fill:#23232b;}.cls-9{fill:#21191a;}.cls-10{fill:#ffbb7d;}.cls-11{fill:#333;}.cls-12{fill:#e6e6e6;}.cls-13{fill:#453659;}.cls-14{fill:gray;}.cls-15,.cls-25{fill:#ffb769;}.cls-16{fill:#b3b3b3;}.cls-17{fill:#511015;}.cls-18{fill:#183f2c;}.cls-19,.cls-20,.cls-32{fill:#fef8ff;}.cls-20,.cls-32{mix-blend-mode:screen;}.cls-21{fill:#bdccd4;}.cls-22{fill:#3f3e3d;}.cls-23{fill:#4d4d4d;}.cls-24{fill:#fce0ff;}.cls-26{fill:#42210b;}.cls-27{fill:#ffd09f;}.cls-28{fill:#241145;}.cls-29{fill:#f27d16;}.cls-30{fill:#fff4d4;}.cls-31{fill:#1a1a1a;}.cls-32{opacity:0.19;}</style></defs><title>electric-guitars</title><g class="cls-1"><g id="_Layer_" data-name="&lt;Layer&gt;"><rect width="1467.54" height="1080"/><polygon points="846.73 287.02 839.71 277.14 842.4 274.91 849.41 284.79 846.73 287.02"/><polygon points="871.53 297.12 878.55 307 875.87 309.23 868.85 299.35 871.53 297.12"/><polygon points="852.75 319.79 859.77 329.67 857.09 331.9 850.07 322.02 852.75 319.79"/><polygon points="836.54 341.93 843.56 351.81 840.88 354.04 833.86 344.16 836.54 341.93"/><polygon points="822.85 300.11 815.83 290.23 818.52 288 825.53 297.88 822.85 300.11"/><polygon points="799.6 315.44 792.58 305.56 795.26 303.33 802.28 313.21 799.6 315.44"/><polygon points="367.94 714.79 363.44 708.46 366.21 706.15 370.71 712.48 367.94 714.79"/><path class="cls-2" d="M837,282.66l-1.76-4.91a6.85,6.85,0,0,1,2-7.48h0a5.67,5.67,0,0,1,7.2-.21l3.94,3.1Z"/><path class="cls-2" d="M881.24,301.48l1.76,4.91a6.85,6.85,0,0,1-2,7.48h0a5.67,5.67,0,0,1-7.2.21l-3.94-3.1Z"/><path class="cls-2" d="M862.46,324.15l1.76,4.91a6.85,6.85,0,0,1-2,7.48h0a5.67,5.67,0,0,1-7.2.21l-3.94-3.1Z"/><path class="cls-2" d="M846.24,346.29,848,351.2a6.85,6.85,0,0,1-2,7.48h0a5.67,5.67,0,0,1-7.2.21l-3.94-3.1Z"/><path class="cls-2" d="M813.15,295.76l-1.76-4.91a6.85,6.85,0,0,1,2-7.48h0a5.67,5.67,0,0,1,7.2-.21l3.94,3.1Z"/><path class="cls-2" d="M789.89,311.09l-1.76-4.91a6.85,6.85,0,0,1,2-7.48h0a5.67,5.67,0,0,1,7.2-.21l3.94,3.1Z"/><path class="cls-3" d="M589.38,514.71s-70.91-44-80.66-39.89-33.07,63.53-44.56,69.07-106,20.61-121.4,47.74,13.14,120,13.14,120,18.24-12.31,57,19,50,27,68.74,11.48,52.94-98.35,64-107.56S670.78,606,675.77,594.45,674,565.6,638.63,567s-56.83-4.8-62.71-13.07S589.38,514.71,589.38,514.71Z"/><path class="cls-4" d="M675.77,594.45c5-11.58-1.77-28.84-37.13-27.46s-56.83-4.8-62.71-13.07c-4-5.67,3.78-22,9.09-31.67L358.62,710.47c6.38-2.11,24.11-4.18,54.27,20.17,38.74,31.27,50,27,68.74,11.48s52.94-98.35,64-107.56S670.78,606,675.77,594.45Z"/><path d="M369.63,715.37c2.31-1.47,3.86-3.29,3.46-4l-8.38,5.34C365.12,717.42,367.32,716.84,369.63,715.37Z"/><path d="M520.21,507a7.46,7.46,0,0,1-11-1.31,9,9,0,0,1,1.66-11.87,7.46,7.46,0,0,1,11,1.31A9,9,0,0,1,520.21,507Z"/><path class="cls-5" d="M519.36,505.82a6.1,6.1,0,0,1-9-1.08A7.33,7.33,0,0,1,511.7,495a6.1,6.1,0,0,1,9,1.08A7.33,7.33,0,0,1,519.36,505.82Z"/><path class="cls-6" d="M528.13,499.46c-17.56,2.14-18,3.21-.67-3.58C529.86,494.94,530.74,499.11,528.13,499.46Z"/><path class="cls-7" d="M778.64,343.64s13.45-11.56,9-26.57c0,0,96-59.64,97.58-57.49S893,271,898.14,269.46s10.31,2.11,4.77,6.71-66.25,55.08-72.8,80c0,0-16.68-9-34,8S561.47,566.51,561.47,566.51L539.76,536Z"/><path class="cls-8" d="M796.16,364.16l-3.27-4.61L554.23,556.33l7.24,10.19S717,433.9,775.44,382.72Z"/><path class="cls-9" d="M830.11,356.14c6.55-24.89,67.26-75.36,72.8-80s.35-8.3-4.77-6.71-11.36-7.72-12.89-9.87-97.58,57.49-97.58,57.49c4.42,15-9,26.57-9,26.57l-.47.38L794,366.24c.92-.85,1.65-1.55,2.19-2.08C813.43,347.13,830.11,356.14,830.11,356.14Z"/><path d="M898.14,269.46c-1.86.58-3.86-.28-5.74-1.71l-105.88,88L794,366.24c.92-.85,1.65-1.55,2.19-2.08,17.27-17,34-8,34-8,6.55-24.89,67.26-75.36,72.8-80S903.26,267.87,898.14,269.46Z"/><path class="cls-3" d="M835,312.78c-.9-.11-17.12,5.37-29.58,15.73A99.12,99.12,0,0,1,778.18,344L794,366.24s12.44-16.22,21.5-26.33S835.92,312.89,835,312.78Z"/><polygon class="cls-10" points="779 373.08 768.53 358.34 777.18 351.14 787.66 365.89 779 373.08"/><polygon class="cls-10" points="745.09 402.61 734.02 387.03 742.33 380.12 753.4 395.7 745.09 402.61"/><polygon class="cls-10" points="714.97 427.65 703.9 412.07 712.21 405.17 723.27 420.75 714.97 427.65"/><polygon class="cls-10" points="688.07 450.01 676.49 433.71 684.8 426.8 696.38 443.1 688.07 450.01"/><polygon class="cls-10" points="665.5 469.92 653.41 452.9 659.76 447.62 671.85 464.64 665.5 469.92"/><polygon class="cls-10" points="634.8 495.44 622.37 477.94 628.83 472.57 641.26 490.07 634.8 495.44"/><polygon class="cls-10" points="609.07 516.84 596.63 499.34 602.17 494.74 614.61 512.23 609.07 516.84"/><polygon class="cls-10" points="597.13 529.24 583.59 510.18 586.01 508.17 599.55 527.23 597.13 529.24"/><polygon class="cls-10" points="583.86 540.27 570.32 521.22 572.86 519.11 586.4 538.16 583.86 540.27"/><polygon class="cls-10" points="572.43 549.77 557.7 529.04 559.55 527.5 574.28 548.24 572.43 549.77"/><path d="M777.33,381.07l-16.44-23.14-1.05.85L776.31,382Z"/><path d="M761,395.31l-16.94-23.84-1.05.85,17,23.88Z"/><path d="M744.88,409.3l-17.39-24.48-1.05.85,17.42,24.52Z"/><path d="M730,422.17l-17.78-25-1.05.85L729,423.05Z"/><path d="M716.2,434l-18.14-25.53-1.05.85,18.16,25.57Z"/><path d="M702.58,445.75l-18.48-26-1.05.85,18.5,26Z"/><path d="M689.87,456.67l-18.79-26.44-1.05.85,18.81,26.48Z"/><path d="M678.47,466.46,659.4,439.63l-1.05.85,19.09,26.87Z"/><path d="M666.83,476.44l-19.34-27.22-1.05.85,19.36,27.25Z"/><path d="M656.56,485.24,637,457.68l-1.05.85,19.6,27.59Z"/><path d="M646.68,493.71l-19.81-27.88-1.05.85,19.83,27.92Z"/><path d="M637.55,501.52l-20-28.18-1.05.85,20,28.21Z"/><path d="M628.59,509.18l-20.22-28.47-1.05.85,20.25,28.5Z"/><path d="M620.05,516.49l-20.42-28.74-1.05.85L619,517.37Z"/><path d="M611.81,523.54l-20.6-29-1.05.85,20.63,29Z"/><path d="M604.27,530l-20.77-29.24-1.05.85,20.8,29.27Z"/><path d="M598.21,535.15,577.3,505.73l-1.05.85L597.18,536Z"/><path d="M592,540.42,571,510.8l-1.05.85L591,541.3Z"/><path d="M585.53,546l-21.19-29.82-1.05.85,21.21,29.86Z"/><path d="M580.39,550.37l-21.3-30-1.05.85,21.32,30Z"/><path d="M573.19,556.52l-21.46-30.2-1.05.85,21.48,30.24Z"/><path d="M568.9,560.18l-21.55-30.34-1.05.85,21.57,30.37Z"/><path d="M496.47,669.73a5.83,5.83,0,0,1-8.62-1,7,7,0,0,1,1.3-9.28,5.83,5.83,0,0,1,8.62,1A7,7,0,0,1,496.47,669.73Z"/><path class="cls-11" d="M495.4,668.22a4.12,4.12,0,0,1-6.1-.73,5,5,0,0,1,.92-6.56,4.12,4.12,0,0,1,6.1.73A5,5,0,0,1,495.4,668.22Z"/><path d="M494.38,666.78a2.49,2.49,0,0,1-3.69-.44,3,3,0,0,1,.56-4,2.49,2.49,0,0,1,3.69.44A3,3,0,0,1,494.38,666.78Z"/><path d="M478.28,698.85a5.83,5.83,0,0,1-8.62-1,7,7,0,0,1,1.3-9.28,5.83,5.83,0,0,1,8.62,1A7,7,0,0,1,478.28,698.85Z"/><path class="cls-11" d="M477.21,697.34a4.12,4.12,0,0,1-6.1-.73,5,5,0,0,1,.92-6.56,4.12,4.12,0,0,1,6.1.73A5,5,0,0,1,477.21,697.34Z"/><path d="M476.19,695.9a2.49,2.49,0,0,1-3.69-.44,3,3,0,0,1,.56-4,2.49,2.49,0,0,1,3.69.44A3,3,0,0,1,476.19,695.9Z"/><path d="M459.66,730.62a5.83,5.83,0,0,1-8.62-1,7,7,0,0,1,1.3-9.28,5.83,5.83,0,0,1,8.62,1A7,7,0,0,1,459.66,730.62Z"/><path class="cls-11" d="M458.59,729.11a4.12,4.12,0,0,1-6.1-.73,5,5,0,0,1,.92-6.56,4.12,4.12,0,0,1,6.1.73A5,5,0,0,1,458.59,729.11Z"/><path d="M457.57,727.67a2.49,2.49,0,0,1-3.69-.44,3,3,0,0,1,.56-4,2.49,2.49,0,0,1,3.69.44A3,3,0,0,1,457.57,727.67Z"/><path class="cls-12" d="M543.7,588.15,515.18,548a5.21,5.21,0,0,1,1-6.91l16.73-13.91a4.34,4.34,0,0,1,6.42.76l28.52,40.15a5.21,5.21,0,0,1-1,6.91l-16.73,13.91A4.34,4.34,0,0,1,543.7,588.15Z"/><path class="cls-5" d="M542.76,583.21l-22.48-31.64a3.58,3.58,0,0,1,.67-4.75l14.77-12.28a3,3,0,0,1,4.41.53l22.48,31.64a3.58,3.58,0,0,1-.67,4.75l-14.77,12.28A3,3,0,0,1,542.76,583.21Z"/><path class="cls-6" d="M538.72,544.7a2.15,2.15,0,0,1-3.18-.38,2.59,2.59,0,0,1,.48-3.43,2.15,2.15,0,0,1,3.18.38A2.58,2.58,0,0,1,538.72,544.7Z"/><path class="cls-6" d="M530.15,551.82a2.15,2.15,0,0,1-3.18-.38,2.59,2.59,0,0,1,.48-3.43,2.15,2.15,0,0,1,3.18.38A2.59,2.59,0,0,1,530.15,551.82Z"/><path class="cls-6" d="M542.49,550a2.15,2.15,0,0,1-3.18-.38,2.58,2.58,0,0,1,.48-3.43,2.15,2.15,0,0,1,3.18.38A2.58,2.58,0,0,1,542.49,550Z"/><path class="cls-6" d="M533.92,557.13a2.15,2.15,0,0,1-3.18-.38,2.58,2.58,0,0,1,.48-3.43,2.15,2.15,0,0,1,3.18.38A2.59,2.59,0,0,1,533.92,557.13Z"/><path class="cls-6" d="M546.06,555a2.15,2.15,0,0,1-3.18-.38,2.58,2.58,0,0,1,.48-3.43,2.15,2.15,0,0,1,3.18.38A2.58,2.58,0,0,1,546.06,555Z"/><path class="cls-6" d="M537.49,562.16a2.15,2.15,0,0,1-3.18-.38,2.58,2.58,0,0,1,.48-3.43,2.15,2.15,0,0,1,3.18.38A2.59,2.59,0,0,1,537.49,562.16Z"/><path class="cls-6" d="M550.09,560.7a2.15,2.15,0,0,1-3.18-.38,2.59,2.59,0,0,1,.48-3.43,2.15,2.15,0,0,1,3.18.38A2.58,2.58,0,0,1,550.09,560.7Z"/><path class="cls-6" d="M541.52,567.82a2.15,2.15,0,0,1-3.18-.38,2.59,2.59,0,0,1,.48-3.43,2.15,2.15,0,0,1,3.18.38A2.59,2.59,0,0,1,541.52,567.82Z"/><path class="cls-6" d="M553.28,565.19a2.15,2.15,0,0,1-3.18-.38,2.59,2.59,0,0,1,.48-3.43,2.15,2.15,0,0,1,3.18.38A2.58,2.58,0,0,1,553.28,565.19Z"/><path class="cls-6" d="M544.71,572.31a2.15,2.15,0,0,1-3.18-.38,2.59,2.59,0,0,1,.48-3.43,2.15,2.15,0,0,1,3.18.38A2.58,2.58,0,0,1,544.71,572.31Z"/><path class="cls-6" d="M557.37,570.94a2.15,2.15,0,0,1-3.18-.38,2.59,2.59,0,0,1,.48-3.43,2.15,2.15,0,0,1,3.18.38A2.58,2.58,0,0,1,557.37,570.94Z"/><path class="cls-6" d="M548.8,578.07a2.15,2.15,0,0,1-3.18-.38,2.59,2.59,0,0,1,.48-3.43,2.15,2.15,0,0,1,3.18.38A2.59,2.59,0,0,1,548.8,578.07Z"/><path class="cls-7" d="M535.73,531.6a1.43,1.43,0,0,1-2.12-.25,1.72,1.72,0,0,1,.32-2.28,1.43,1.43,0,0,1,2.12.25A1.72,1.72,0,0,1,535.73,531.6Z"/><path class="cls-7" d="M518.75,546.12a1.32,1.32,0,0,1-2-.23,1.59,1.59,0,0,1,.29-2.1,1.32,1.32,0,0,1,2,.23A1.59,1.59,0,0,1,518.75,546.12Z"/><path class="cls-7" d="M565.57,574a1.43,1.43,0,0,1-2.12-.25,1.72,1.72,0,0,1,.32-2.28,1.43,1.43,0,0,1,2.12.25A1.72,1.72,0,0,1,565.57,574Z"/><path class="cls-7" d="M548.59,588.5a1.32,1.32,0,0,1-2-.23,1.59,1.59,0,0,1,.29-2.1,1.32,1.32,0,0,1,2,.23A1.59,1.59,0,0,1,548.59,588.5Z"/><path class="cls-12" d="M491.77,631.32l-28.52-40.15a5.21,5.21,0,0,1,1-6.91l16.73-13.91a4.34,4.34,0,0,1,6.42.76l28.52,40.15a5.21,5.21,0,0,1-1,6.91l-16.73,13.91A4.34,4.34,0,0,1,491.77,631.32Z"/><path class="cls-5" d="M490.83,626.38l-22.48-31.64A3.58,3.58,0,0,1,469,590l14.77-12.28a3,3,0,0,1,4.41.53l22.48,31.64a3.58,3.58,0,0,1-.67,4.75l-14.77,12.28A3,3,0,0,1,490.83,626.38Z"/><path class="cls-6" d="M486.79,587.88a2.15,2.15,0,0,1-3.18-.38,2.58,2.58,0,0,1,.48-3.43,2.15,2.15,0,0,1,3.18.38A2.58,2.58,0,0,1,486.79,587.88Z"/><path class="cls-6" d="M478.22,595a2.15,2.15,0,0,1-3.18-.38,2.59,2.59,0,0,1,.48-3.43,2.15,2.15,0,0,1,3.18.38A2.59,2.59,0,0,1,478.22,595Z"/><path class="cls-6" d="M490.55,593.18a2.15,2.15,0,0,1-3.18-.38,2.58,2.58,0,0,1,.48-3.43,2.15,2.15,0,0,1,3.18.38A2.58,2.58,0,0,1,490.55,593.18Z"/><path class="cls-6" d="M482,600.31a2.15,2.15,0,0,1-3.18-.38,2.58,2.58,0,0,1,.48-3.43,2.15,2.15,0,0,1,3.18.38A2.59,2.59,0,0,1,482,600.31Z"/><path class="cls-6" d="M494.13,598.21a2.15,2.15,0,0,1-3.18-.38,2.58,2.58,0,0,1,.48-3.43,2.15,2.15,0,0,1,3.18.38A2.58,2.58,0,0,1,494.13,598.21Z"/><path class="cls-6" d="M485.56,605.33a2.15,2.15,0,0,1-3.18-.38,2.58,2.58,0,0,1,.48-3.43,2.15,2.15,0,0,1,3.18.38A2.59,2.59,0,0,1,485.56,605.33Z"/><path class="cls-6" d="M498.15,603.87a2.15,2.15,0,0,1-3.18-.38,2.59,2.59,0,0,1,.48-3.43,2.15,2.15,0,0,1,3.18.38A2.58,2.58,0,0,1,498.15,603.87Z"/><path class="cls-6" d="M489.58,611a2.15,2.15,0,0,1-3.18-.38,2.59,2.59,0,0,1,.48-3.43,2.15,2.15,0,0,1,3.18.38A2.59,2.59,0,0,1,489.58,611Z"/><path class="cls-6" d="M501.34,608.37a2.15,2.15,0,0,1-3.18-.38,2.58,2.58,0,0,1,.48-3.43,2.15,2.15,0,0,1,3.18.38A2.58,2.58,0,0,1,501.34,608.37Z"/><path class="cls-6" d="M492.77,615.49a2.15,2.15,0,0,1-3.18-.38,2.59,2.59,0,0,1,.48-3.43,2.15,2.15,0,0,1,3.18.38A2.58,2.58,0,0,1,492.77,615.49Z"/><path class="cls-6" d="M505.43,614.12a2.15,2.15,0,0,1-3.18-.38,2.58,2.58,0,0,1,.48-3.43,2.15,2.15,0,0,1,3.18.38A2.58,2.58,0,0,1,505.43,614.12Z"/><path class="cls-6" d="M496.86,621.24a2.15,2.15,0,0,1-3.18-.38,2.59,2.59,0,0,1,.48-3.43,2.15,2.15,0,0,1,3.18.38A2.59,2.59,0,0,1,496.86,621.24Z"/><path class="cls-7" d="M483.8,574.78a1.43,1.43,0,0,1-2.12-.25,1.72,1.72,0,0,1,.32-2.28,1.43,1.43,0,0,1,2.12.25A1.72,1.72,0,0,1,483.8,574.78Z"/><path class="cls-7" d="M466.82,589.3a1.32,1.32,0,0,1-2-.23,1.59,1.59,0,0,1,.29-2.1,1.32,1.32,0,0,1,2,.23A1.59,1.59,0,0,1,466.82,589.3Z"/><path class="cls-7" d="M513.63,617.16a1.43,1.43,0,0,1-2.12-.25,1.72,1.72,0,0,1,.32-2.28,1.43,1.43,0,0,1,2.12.25A1.72,1.72,0,0,1,513.63,617.16Z"/><path class="cls-7" d="M496.65,631.68a1.32,1.32,0,0,1-2-.23,1.59,1.59,0,0,1,.29-2.1,1.32,1.32,0,0,1,2,.23A1.59,1.59,0,0,1,496.65,631.68Z"/><polygon class="cls-6" points="444 600.98 457.5 589.75 492.42 638.89 478.91 650.12 444 600.98"/><polygon class="cls-13" points="479.23 647.85 446.11 601.23 457.19 592.02 490.31 638.64 479.23 647.85"/><polygon class="cls-14" points="453.9 612.19 451.79 609.23 462.95 599.94 465.06 602.91 453.9 612.19"/><polygon class="cls-14" points="458.15 618.19 456.05 615.22 467.21 605.94 469.32 608.9 458.15 618.19"/><polygon class="cls-14" points="462.41 624.18 460.3 621.21 471.47 611.93 473.58 614.89 462.41 624.18"/><polygon class="cls-14" points="466.67 630.17 464.56 627.21 475.73 617.92 477.83 620.89 466.67 630.17"/><polygon class="cls-14" points="470.93 636.16 468.82 633.2 479.98 623.91 482.09 626.88 470.93 636.16"/><polygon class="cls-14" points="474.34 641.07 472.24 638.11 483.4 628.82 485.51 631.79 474.34 641.07"/><path d="M458.1,599.72a3.47,3.47,0,0,1-3.82,3,3.34,3.34,0,0,1-2.64-4,3.47,3.47,0,0,1,3.82-3A3.34,3.34,0,0,1,458.1,599.72Z"/><path class="cls-15" d="M437.56,618.3a3.47,3.47,0,0,1-3.82,3,3.34,3.34,0,0,1-2.64-4,3.47,3.47,0,0,1,3.82-3A3.34,3.34,0,0,1,437.56,618.3Z"/><path d="M486.76,640.07a3.47,3.47,0,0,1-3.82,3,3.34,3.34,0,0,1-2.64-4,3.47,3.47,0,0,1,3.82-3A3.34,3.34,0,0,1,486.76,640.07Z"/><polygon class="cls-15" points="462.46 660.2 433.43 619.33 435.63 617.5 464.66 658.37 462.46 660.2"/><polygon class="cls-13" points="432.83 624.99 427.53 617.53 435.84 610.62 441.14 618.08 432.83 624.99"/><polygon class="cls-11" points="429.64 617.78 435.52 612.89 439.03 617.83 433.15 622.72 429.64 617.78"/><path class="cls-15" d="M465.16,659.18a3.47,3.47,0,0,1-3.82,3,3.34,3.34,0,0,1-2.64-4,3.47,3.47,0,0,1,3.82-3A3.34,3.34,0,0,1,465.16,659.18Z"/><polygon class="cls-13" points="460.43 665.87 455.13 658.41 463.44 651.5 468.74 658.96 460.43 665.87"/><polygon class="cls-11" points="457.24 658.66 463.12 653.77 466.63 658.71 460.75 663.6 457.24 658.66"/><path class="cls-16" d="M444.74,637.09a.49.49,0,0,1,.09-.65L784.4,352.77,852,288.41a.41.41,0,0,1,.61,0,.5.5,0,0,1,0,.65l-67.58,64.38L445.34,637.16a.41.41,0,0,1-.6-.07Z"/><path class="cls-16" d="M441.3,630.42h0a.49.49,0,0,1,.09-.65L782.19,349.66c1.73-1.82,43.28-45.53,44.77-46.77a.41.41,0,0,1,.6.07.49.49,0,0,1-.09.65c-1.16,1-29.77,31-44.73,46.73L441.9,630.49A.41.41,0,0,1,441.3,630.42Z"/><path class="cls-16" d="M436.22,625.11h0a.49.49,0,0,1,.1-.65L780,346.68,803.78,318a.41.41,0,0,1,.61-.05.48.48,0,0,1,0,.65l-23.82,28.77,0,0L436.82,625.18A.41.41,0,0,1,436.22,625.11Z"/><path class="cls-16" d="M448.67,642.63a.49.49,0,0,1,.09-.65L787.29,356.85l82.21-62.62a.4.4,0,0,1,.6.1.49.49,0,0,1-.12.64l-82.19,62.61L449.27,642.7a.41.41,0,0,1-.6-.07Z"/><path class="cls-16" d="M455,647.64a.49.49,0,0,1,.09-.64L789.84,360.45l58.34-44.12a.41.41,0,0,1,.6.1.49.49,0,0,1-.12.64l-58.32,44.1L455.59,647.7a.41.41,0,0,1-.6-.06Z"/><path class="cls-16" d="M458.19,652.15a.49.49,0,0,1,.08-.64l334-287.58,40.13-24.39a.41.41,0,0,1,.58.17.49.49,0,0,1-.18.63l-40.07,24.35-334,287.54a.41.41,0,0,1-.6-.06Z"/><polygon points="436.11 627.56 434 624.6 440.49 619.2 442.6 622.16 436.11 627.56"/><polygon points="440.36 633.55 438.26 630.59 444.75 625.19 446.86 628.16 440.36 633.55"/><polygon points="444.62 639.55 442.51 636.58 449.01 631.18 451.11 634.15 444.62 639.55"/><polygon points="448.88 645.54 446.77 642.57 453.26 637.17 455.37 640.14 448.88 645.54"/><polygon points="453.14 651.53 451.03 648.57 457.52 643.17 459.63 646.13 453.14 651.53"/><polygon points="456.58 656.38 454.48 653.42 460.97 648.02 463.08 650.99 456.58 656.38"/><path class="cls-11" d="M855.49,290.82a3.81,3.81,0,0,1-5.63-.67,4.57,4.57,0,0,1,.85-6.06,3.81,3.81,0,0,1,5.63.67A4.57,4.57,0,0,1,855.49,290.82Z"/><path class="cls-2" d="M854.76,289.8a2.64,2.64,0,0,1-3.91-.47,3.18,3.18,0,0,1,.59-4.21,2.64,2.64,0,0,1,3.91.47A3.17,3.17,0,0,1,854.76,289.8Z"/><path class="cls-11" d="M872.48,297.67a3.81,3.81,0,0,1-5.63-.67,4.57,4.57,0,0,1,.85-6.06,3.81,3.81,0,0,1,5.63.67A4.57,4.57,0,0,1,872.48,297.67Z"/><path class="cls-2" d="M871.74,296.65a2.64,2.64,0,0,1-3.91-.47,3.17,3.17,0,0,1,.59-4.21,2.64,2.64,0,0,1,3.91.47A3.17,3.17,0,0,1,871.74,296.65Z"/><path class="cls-11" d="M851,320.31a3.81,3.81,0,0,1-5.63-.67,4.57,4.57,0,0,1,.85-6.06,3.81,3.81,0,0,1,5.63.67A4.57,4.57,0,0,1,851,320.31Z"/><path class="cls-2" d="M850.26,319.29a2.64,2.64,0,0,1-3.91-.47,3.18,3.18,0,0,1,.59-4.21,2.64,2.64,0,0,1,3.91.47A3.18,3.18,0,0,1,850.26,319.29Z"/><path class="cls-11" d="M834.9,343.1a3.81,3.81,0,0,1-5.63-.67,4.57,4.57,0,0,1,.85-6.06,3.81,3.81,0,0,1,5.63.67A4.57,4.57,0,0,1,834.9,343.1Z"/><path class="cls-2" d="M834.16,342.08a2.64,2.64,0,0,1-3.91-.47,3.18,3.18,0,0,1,.59-4.21,2.64,2.64,0,0,1,3.91.47A3.18,3.18,0,0,1,834.16,342.08Z"/><path class="cls-11" d="M829.82,306.43a3.81,3.81,0,0,1-5.63-.67,4.57,4.57,0,0,1,.85-6.06,3.81,3.81,0,0,1,5.63.67A4.57,4.57,0,0,1,829.82,306.43Z"/><path class="cls-2" d="M829.09,305.41a2.64,2.64,0,0,1-3.91-.47,3.18,3.18,0,0,1,.59-4.21,2.64,2.64,0,0,1,3.91.47A3.18,3.18,0,0,1,829.09,305.41Z"/><path class="cls-11" d="M806,321.47a3.81,3.81,0,0,1-5.63-.67,4.57,4.57,0,0,1,.85-6.06,3.81,3.81,0,0,1,5.63.67A4.57,4.57,0,0,1,806,321.47Z"/><path class="cls-2" d="M805.28,320.44a2.64,2.64,0,0,1-3.91-.47,3.18,3.18,0,0,1,.59-4.21,2.64,2.64,0,0,1,3.91.47A3.18,3.18,0,0,1,805.28,320.44Z"/><path class="cls-17" d="M674.27,596.21c-3.48,2.37-7.42,3.68-11.29,5-30.48,10.22-107.38,23.18-118.58,31.65-.49.62-2.26,1.26-8.48,11.71-14.53,24.71-34.36,69.4-50.42,90.26a67.68,67.68,0,0,1-8.73,8.49c-11.26,8.87-17.53,9.43-25.39,8.08-26.27-7-41.51-30.64-68.83-39.66-7.56-2.55-16.31-4-23.94-1.28,7.5-2.18,16.35-.3,23.53,2.5,26.37,10,41.12,34.2,68.36,42.28,8.95,1.76,17.07,1.57,32.38-11.39.92-1.08,4.26-2.61,13.4-16.9,19.58-30.6,35.85-79.13,50.57-90.65C562.78,623.85,632,614,663.18,601.91,667,600.35,670.9,598.79,674.27,596.21Z"/><rect x="1204.69" y="587.29" width="4.45" height="7.33" transform="translate(2413.83 1181.91) rotate(180)"/><rect class="cls-18" x="1271.22" y="899.84" width="4.45" height="7.33"/><path d="M1260.27,189.18l-1.12-.43a1.62,1.62,0,0,0-2.09.94l-.8,2.1a1.62,1.62,0,0,0,.94,2.09l1.12.43a1.62,1.62,0,0,0,2.09-.94l.14-.37a2,2,0,0,0,1.17,2.61l4.08,1.56a2,2,0,0,0,2.61-1.17l.51-1.35a2,2,0,0,0-1.17-2.61l-4.08-1.56a2,2,0,0,0-2.61,1.17l.14-.37A1.62,1.62,0,0,0,1260.27,189.18Z"/><path d="M1253.81,207.25l-1.12-.43a1.62,1.62,0,0,0-2.09.94l-.8,2.1a1.62,1.62,0,0,0,.94,2.09l1.12.43a1.62,1.62,0,0,0,2.1-.94l.14-.37a2,2,0,0,0,1.17,2.61l4.08,1.56a2,2,0,0,0,2.61-1.17l.51-1.35a2,2,0,0,0-1.17-2.61l-4.08-1.56a2,2,0,0,0-2.61,1.17l.14-.37A1.62,1.62,0,0,0,1253.81,207.25Z"/><path d="M1249.07,225.69l-1.12-.43a1.62,1.62,0,0,0-2.09.94l-.8,2.1a1.62,1.62,0,0,0,.94,2.09l1.12.43a1.62,1.62,0,0,0,2.09-.94l.14-.37a2,2,0,0,0,1.17,2.61l4.08,1.56a2,2,0,0,0,2.61-1.17l.51-1.35a2,2,0,0,0-1.17-2.61l-4.08-1.56a2,2,0,0,0-2.61,1.17l.14-.37A1.62,1.62,0,0,0,1249.07,225.69Z"/><path d="M1243.35,244.14l-1.12-.43a1.62,1.62,0,0,0-2.1.94l-.8,2.1a1.62,1.62,0,0,0,.94,2.09l1.12.43a1.62,1.62,0,0,0,2.09-.94l.14-.37a2,2,0,0,0,1.17,2.61l4.08,1.56a2,2,0,0,0,2.61-1.17l.51-1.35a2,2,0,0,0-1.17-2.61l-4.08-1.56a2,2,0,0,0-2.61,1.17l.14-.37A1.62,1.62,0,0,0,1243.35,244.14Z"/><path d="M1272.73,151.92l-1.12-.43a1.62,1.62,0,0,0-2.09.94l-.8,2.1a1.62,1.62,0,0,0,.94,2.09l1.12.43a1.62,1.62,0,0,0,2.09-.94l.14-.37a2,2,0,0,0,1.17,2.61l4.08,1.56a2,2,0,0,0,2.61-1.17l.51-1.35a2,2,0,0,0-1.17-2.61l-4.08-1.56a2,2,0,0,0-2.61,1.17l.14-.37A1.62,1.62,0,0,0,1272.73,151.92Z"/><path d="M1266.28,171.59l-1.12-.43a1.62,1.62,0,0,0-2.09.94l-.8,2.1a1.62,1.62,0,0,0,.94,2.09l1.12.43a1.62,1.62,0,0,0,2.1-.94l.14-.37a2,2,0,0,0,1.17,2.61l4.08,1.56a2,2,0,0,0,2.61-1.17l.51-1.35a2,2,0,0,0-1.17-2.61l-4.08-1.56a2,2,0,0,0-2.61,1.17l.14-.37A1.62,1.62,0,0,0,1266.28,171.59Z"/><path d="M1262,601.13s-13.7,18.51-28.85,3.37c0,0-30.05-26.2-52.89-3.37s12.5,87.51,3.43,118.52C1177.47,741,1112,840.1,1169.23,879.52s172.13,20.67,198.09,0,38-60.58,21.64-96.64-40.39-60.1-33.17-79.82,24.52-66.35,18.75-86.55-20.19-23.08-28.85-14.42-9.13,34.62-27.89,40.39-29.33-21.64-29.33-21.64Z"/><path d="M1278.5,911.26h-10.1a2,2,0,0,1-2-2h0a2,2,0,0,1,2-2h10.1a2,2,0,0,1,2,2h0A2,2,0,0,1,1278.5,911.26Z"/><path class="cls-18" d="M1201.87,583.2H1212a2,2,0,0,1,2,2h0a2,2,0,0,1-2,2h-10.1a2,2,0,0,1-2-2h0A2,2,0,0,1,1201.87,583.2Z"/><path class="cls-19" d="M1370.37,643.28c1.6-11.86-.64-34.94-10.26-31.73S1353.7,650,1322.29,659,1279,627.9,1279,627.9l-18.27-10.58s-35.58-4.81-49.36,89.11c0,0-6.69,51.61-6.69,70.2h37a6.37,6.37,0,1,1,12.74,0h43.06a6.37,6.37,0,1,1,12.74,0H1355s-9.62-60.58-6.09-72.44S1368.77,655.14,1370.37,643.28Z"/><path class="cls-20" d="M1248.06,770.26a6.37,6.37,0,0,1,6.37,6.37H1256l-45.22-65.57c-.4,3.2-1,7.84-1.6,13.25L1242.8,773A6.36,6.36,0,0,1,1248.06,770.26Z"/><path class="cls-20" d="M1329.53,776.63l-96.4-139.78a89.45,89.45,0,0,0-4.83,8.56l90.5,131.22Z"/><path class="cls-20" d="M1297.49,776.63a6.37,6.37,0,1,1,12.74,0h5.6l-88.75-128.69c-4.19,9-8.17,20.59-11.51,35.57l64.22,93.12Z"/><circle class="cls-14" cx="1251.93" cy="625.81" r="2.08"/><circle class="cls-14" cx="1226.39" cy="673.85" r="2.08"/><circle class="cls-14" cx="1216.08" cy="721.34" r="2.08"/><circle class="cls-14" cx="1257.86" cy="757.31" r="2.08"/><circle class="cls-14" cx="1280.52" cy="737.79" r="2.08"/><circle class="cls-14" cx="1289.85" cy="766.1" r="2.08"/><circle class="cls-14" cx="1327.71" cy="767.78" r="2.08"/><circle class="cls-14" cx="1353" cy="672.34" r="2.08"/><circle class="cls-14" cx="1362.08" cy="617.54" r="2.08" transform="translate(-81.21 1009.36) rotate(-39.58)"/><circle class="cls-15" cx="1345.29" cy="739.87" r="2.08"/><circle class="cls-15" cx="1345.29" cy="852" r="2.08"/><circle class="cls-14" cx="1211.08" cy="769.53" r="2.08"/><path class="cls-21" d="M1345.29,856.29h0a11.49,11.49,0,0,1-11.46-11.46V746.26a11.49,11.49,0,0,1,11.46-11.46h0a11.49,11.49,0,0,1,11.46,11.46v98.57A11.49,11.49,0,0,1,1345.29,856.29Z"/><ellipse class="cls-22" cx="1348.58" cy="756.12" rx="7.05" ry="6.09"/><ellipse class="cls-22" cx="1349.7" cy="801.63" rx="7.05" ry="6.09"/><path d="M1346.93,847.79h0a1.64,1.64,0,0,1-1.64-1.64v-28a1.64,1.64,0,0,1,1.64-1.64h0a1.64,1.64,0,0,1,1.64,1.64v28A1.64,1.64,0,0,1,1346.93,847.79Z"/><circle class="cls-22" cx="1346.93" cy="829.64" r="5.99"/><path class="cls-21" d="M1298.23,674.42h-40.42a5.87,5.87,0,0,1-5.87-5.87h0a5.87,5.87,0,0,1,5.87-5.87h40.42a5.87,5.87,0,0,1,5.87,5.87h0A5.87,5.87,0,0,1,1298.23,674.42Z"/><path class="cls-23" d="M1295.75,765.3l-43.14-15.67a8.49,8.49,0,0,1-5.08-10.88h0a8.49,8.49,0,0,1,10.88-5.09l43.13,15.66a8.5,8.5,0,0,1,5.09,10.88h0A8.5,8.5,0,0,1,1295.75,765.3Z"/><circle class="cls-21" cx="1257.86" cy="745.22" r="2.65"/><circle class="cls-21" cx="1274.78" cy="751.39" r="2.65"/><circle class="cls-21" cx="1282.6" cy="753.62" r="2.65"/><circle class="cls-21" cx="1290.25" cy="756.27" r="2.65"/><circle class="cls-21" cx="1298.24" cy="758.91" r="2.65"/><circle class="cls-21" cx="1266.32" cy="748.33" r="2.65"/><path class="cls-24" d="M1242.92,781.08h71.16a0,0,0,0,1,0,0v14a11.35,11.35,0,0,1-11.35,11.35h-48.46a11.35,11.35,0,0,1-11.35-11.35v-14A0,0,0,0,1,1242.92,781.08Z"/><path class="cls-15" d="M1246,261.84l35.9-117s24.52-7.37,28.69,13.46c0,0,5.45,5.77-5.93,23.08s5.77,28.21,5.77,28.21-8.65,13.62-4.33,20.84-6.09,29-11.06,37.82a23.64,23.64,0,0,0-2.56,17l1,10.58,4.79,362.85h-42.46l5.78-364.3.48-9.14S1260.27,269.21,1246,261.84Z"/><polygon class="cls-25" points="1277.38 294.07 1277.38 658.67 1298.23 658.67 1293.44 295.82 1293.28 294.07 1277.38 294.07"/><path class="cls-26" d="M1292.48,285.24a23.64,23.64,0,0,1,2.56-17c5-8.81,15.39-30.61,11.06-37.82s4.33-20.84,4.33-20.84-17.15-10.9-5.77-28.21,5.93-23.08,5.93-23.08c-4.17-20.84-28.69-13.46-28.69-13.46l-35.9,117c14.27,7.37,16,23.4,16,23.4l0,.58h30.54Z"/><path class="cls-18" d="M1250.86,194.45a7.1,7.1,0,0,0,3.83,3.5l1.18.45,5.14-13.48-1.18-.45a7.09,7.09,0,0,0-5.19.06Z"/><path class="cls-18" d="M1244.41,212.52a7.1,7.1,0,0,0,3.83,3.5l1.18.45,5.14-13.48-1.18-.45a7.09,7.09,0,0,0-5.19.06Z"/><path class="cls-18" d="M1239.66,231a7.11,7.11,0,0,0,3.83,3.5l1.18.45,5.14-13.48-1.18-.45a7.09,7.09,0,0,0-5.19.06Z"/><path class="cls-18" d="M1233.94,249.41a7.1,7.1,0,0,0,3.83,3.5l1.18.45,5.14-13.48-1.18-.45a7.09,7.09,0,0,0-5.19.06Z"/><path class="cls-18" d="M1263.33,157.19a7.1,7.1,0,0,0,3.83,3.5l1.18.45,5.14-13.48-1.18-.45a7.09,7.09,0,0,0-5.19.06Z"/><path class="cls-18" d="M1256.87,176.86a7.1,7.1,0,0,0,3.83,3.5l1.18.45,5.14-13.48-1.18-.45a7.09,7.09,0,0,0-5.19.06Z"/><polygon class="cls-27" points="1261.05 325.95 1293.84 325.95 1293.79 322.42 1261.1 322.42 1261.05 325.95"/><polygon class="cls-27" points="1260.65 351.27 1294.17 351.27 1294.13 347.74 1260.7 347.74 1260.65 351.27"/><polygon class="cls-27" points="1260.24 376.59 1294.51 376.59 1294.46 373.07 1260.3 373.07 1260.24 376.59"/><polygon class="cls-27" points="1259.87 400.47 1294.82 400.47 1294.78 396.95 1259.92 396.95 1259.87 400.47"/><polygon class="cls-27" points="1259.52 422.27 1295.11 422.27 1295.07 418.74 1259.58 418.74 1259.52 422.27"/><polygon class="cls-27" points="1259.19 443.11 1295.39 443.11 1295.34 439.58 1259.25 439.58 1259.19 443.11"/><polygon class="cls-27" points="1258.88 462.5 1295.64 462.5 1295.6 458.97 1258.94 458.97 1258.88 462.5"/><polygon class="cls-27" points="1258.59 480.93 1295.89 480.93 1295.84 477.4 1258.64 477.4 1258.59 480.93"/><polygon class="cls-27" points="1258.3 499.36 1296.13 499.36 1296.09 495.83 1258.35 495.83 1258.3 499.36"/><polygon class="cls-27" points="1258.04 515.55 1296.34 515.55 1296.3 512.02 1258.1 512.02 1258.04 515.55"/><polygon class="cls-27" points="1257.83 529.17 1296.53 529.17 1296.48 525.65 1257.88 525.65 1257.83 529.17"/><polygon class="cls-27" points="1257.57 545.36 1296.74 545.36 1296.69 541.83 1257.62 541.83 1257.57 545.36"/><polygon class="cls-27" points="1257.37 557.7 1296.9 557.7 1296.86 554.17 1257.43 554.17 1257.37 557.7"/><polygon class="cls-27" points="1257.16 571.2 1297.08 571.2 1297.03 567.68 1257.21 567.68 1257.16 571.2"/><polygon class="cls-27" points="1256.94 585.25 1297.27 585.25 1297.22 581.72 1256.99 581.72 1256.94 585.25"/><polygon class="cls-27" points="1256.78 595.31 1297.4 595.31 1297.35 591.79 1256.83 591.79 1256.78 595.31"/><polygon class="cls-27" points="1256.6 606.54 1297.55 606.54 1297.5 603.02 1256.65 603.02 1256.6 606.54"/><polygon class="cls-27" points="1256.43 616.9 1297.68 616.9 1297.64 613.37 1256.49 613.37 1256.43 616.9"/><polygon class="cls-27" points="1256.27 627.58 1297.83 627.58 1297.78 624.05 1256.32 624.05 1256.27 627.58"/><polygon class="cls-27" points="1256.14 635.51 1297.93 635.51 1297.88 631.99 1256.19 631.99 1256.14 635.51"/><polygon class="cls-27" points="1256 644.41 1298.05 644.41 1298 640.88 1256.06 640.88 1256 644.41"/><polygon class="cls-27" points="1255.88 652.1 1298.15 652.1 1298.1 648.57 1255.93 648.57 1255.88 652.1"/><circle class="cls-18" cx="1277.44" cy="362.53" r="3.05"/><circle class="cls-18" cx="1277.44" cy="409.65" r="3.05"/><circle class="cls-18" cx="1277.44" cy="450.64" r="3.05"/><circle class="cls-18" cx="1277.44" cy="488.02" r="3.05"/><circle class="cls-18" cx="1266.38" cy="536.1" r="3.05"/><circle class="cls-18" cx="1288.26" cy="536.1" r="3.05" transform="translate(-105.28 607.27) rotate(-25.52)"/><circle class="cls-18" cx="1277.44" cy="576.61" r="3.05" transform="translate(-123.78 606.63) rotate(-25.52)"/><circle class="cls-18" cx="1277.44" cy="598.97" r="3.05" transform="translate(-133.42 608.74) rotate(-25.52)"/><circle class="cls-18" cx="1277.15" cy="620.59" r="3.05" transform="translate(-142.76 610.64) rotate(-25.51)"/><circle class="cls-18" cx="1277.44" cy="638.1" r="2.68" transform="translate(-150.27 612.34) rotate(-25.51)"/><rect class="cls-10" x="1254.94" y="828.32" width="4.57" height="3.25" rx="1.31" ry="1.31"/><rect class="cls-10" x="1256.1" y="821.19" width="2.26" height="8.03"/><rect class="cls-10" x="1265.64" y="828.32" width="4.57" height="3.25" rx="1.31" ry="1.31"/><rect class="cls-10" x="1266.8" y="821.19" width="2.26" height="8.03"/><path class="cls-10" d="M1273.76,826.71H1276a1.16,1.16,0,0,1,1.16,1.16v.2a1.15,1.15,0,0,1-1.15,1.15h-2.26a1.15,1.15,0,0,1-1.15-1.15v-.21A1.15,1.15,0,0,1,1273.76,826.71Z"/><rect class="cls-10" x="1273.77" y="821.19" width="2.26" height="6.22"/><path class="cls-10" d="M1282.71,825.86h2.38a1.09,1.09,0,0,1,1.09,1.09V827a1.09,1.09,0,0,1-1.09,1.09h-2.38a1.1,1.1,0,0,1-1.1-1.1V827A1.09,1.09,0,0,1,1282.71,825.86Z"/><rect class="cls-10" x="1282.78" y="820.91" width="2.26" height="5.58"/><rect class="cls-10" x="1290.09" y="825.19" width="4.57" height="1.8" rx="0.9" ry="0.9"/><rect class="cls-10" x="1291.25" y="821.23" width="2.26" height="4.46"/><rect class="cls-10" x="1296.39" y="825.19" width="4.57" height="1.8" rx="0.9" ry="0.9"/><rect class="cls-10" x="1297.55" y="821.23" width="2.26" height="4.46"/><ellipse class="cls-28" cx="1257.23" cy="784.52" rx="2.28" ry="2"/><ellipse class="cls-28" cx="1264.73" cy="784.52" rx="2.28" ry="2"/><ellipse class="cls-28" cx="1271.91" cy="784.28" rx="2.28" ry="2"/><ellipse class="cls-28" cx="1279" cy="784.28" rx="2.28" ry="2"/><ellipse class="cls-28" cx="1287.77" cy="783.92" rx="2.28" ry="2"/><ellipse class="cls-28" cx="1294.98" cy="783.92" rx="2.28" ry="2"/><rect class="cls-6" x="1253.9" y="269.37" width="41.97" height="3.49"/><rect class="cls-23" x="1261.1" y="269.37" width="2.1" height="3.49"/><rect class="cls-23" x="1268.23" y="269.37" width="2.1" height="3.49"/><rect class="cls-23" x="1272.87" y="269.37" width="2.1" height="3.49"/><rect class="cls-23" x="1279.52" y="269.37" width="2.1" height="3.49"/><rect class="cls-23" x="1285.46" y="269.37" width="2.1" height="3.49"/><rect class="cls-23" x="1289.57" y="269.37" width="2.1" height="3.49"/><rect class="cls-10" x="1260.58" y="283.87" width="34.44" height="11.47"/><rect class="cls-29" x="1258.76" y="293.35" width="37.71" height="1.98"/><path class="cls-6" d="M1305.24,821.23h-50.36a2.82,2.82,0,0,1-2.82-2.82h0a2.82,2.82,0,0,1,2.82-2.83h50.36a2.82,2.82,0,0,1,2.83,2.83h0A2.82,2.82,0,0,1,1305.24,821.23Z"/><polygon class="cls-30" points="1297.8 818.4 1294.01 422.11 1287.24 162.16 1288.11 162.14 1294.88 422.1 1298.67 818.4 1297.8 818.4"/><polygon class="cls-30" points="1291.5 818.4 1287.24 294.38 1281.09 184.03 1281.96 183.98 1288.11 294.35 1292.37 818.4 1291.5 818.4"/><polygon class="cls-30" points="1283.47 818.4 1281.09 295.18 1276.8 202.09 1277.67 202.05 1281.96 295.15 1284.34 818.4 1283.47 818.4"/><polygon class="cls-30" points="1275.22 818.4 1274.35 818.4 1274.63 294.53 1270.57 218.59 1271.44 218.54 1275.5 294.51 1275.22 818.4"/><polygon class="cls-30" points="1268.39 818.4 1267.52 818.4 1270.57 294.37 1266.59 236.95 1267.46 236.89 1271.44 294.34 1268.39 818.4"/><polygon class="cls-30" points="1260.38 818.4 1259.51 818.4 1265.12 294.85 1259.81 256.77 1260.67 256.65 1265.98 294.8 1260.38 818.4"/><ellipse class="cls-31" cx="1274.89" cy="818.14" rx="2.28" ry="2"/><ellipse class="cls-31" cx="1267.92" cy="818.4" rx="2.28" ry="2"/><ellipse class="cls-31" cx="1259.86" cy="817.94" rx="2.28" ry="2"/><ellipse class="cls-31" cx="1283.91" cy="818.14" rx="2" ry="2.28" transform="translate(406.52 2062.31) rotate(-87.31)"/><ellipse class="cls-31" cx="1291.96" cy="818.14" rx="2" ry="2.28" transform="translate(414.17 2070.34) rotate(-87.31)"/><ellipse class="cls-31" cx="1298.33" cy="817.94" rx="2" ry="2.28" transform="translate(420.45 2076.51) rotate(-87.31)"/><path class="cls-32" d="M1173.12,784.52s-15.32,43,0,67.48,76.6,30.39,84.25,22.74-50.88-13-57.55-35.93S1197.33,762.13,1173.12,784.52Z"/></g></g></svg>